<?xml version="1.0" encoding="utf-8"?>
<!-- Generator: Adobe Illustrator 25.0.0, SVG Export Plug-In . SVG Version: 6.00 Build 0)  -->
<svg version="1.1" id="Layer_1" xmlns="http://www.w3.org/2000/svg" xmlns:xlink="http://www.w3.org/1999/xlink" x="0px" y="0px"
	 viewBox="0 0 80 80" style="enable-background:new 0 0 80 80;" xml:space="preserve">
<style type="text/css">
	.st0{fill:none;}
</style>
<g id="图层_x0020_1">
	<rect y="0" class="st0" width="80" height="80"/>
	<g id="_2733889602736">
		<path d="M19.2,9h41.6c2.9,0,5.4,1.1,7.2,2.9c1.9,1.8,3.1,4.5,3.1,7.2v41.6c0,2.9-1.1,5.4-3.1,7.2c-1.8,1.9-4.3,3.1-7.2,3.1H19.2
			c-2.8,0-5.3-1.1-7.2-3.1l0,0C10.2,66.2,9,63.7,9,60.8V19.2c0-2.8,1.1-5.4,2.9-7.2l0,0C13.9,10.2,16.4,9,19.2,9z M60.8,14.3H19.2
			c-1.4,0-2.5,0.6-3.5,1.4l0,0c-0.8,1-1.4,2.1-1.4,3.5v41.6c0,1.4,0.6,2.6,1.4,3.5l0,0c1,1,2.1,1.4,3.5,1.4h41.6
			c1.4,0,2.6-0.6,3.5-1.4c0.8-0.8,1.4-2.1,1.4-3.5V19.2c0-1.4-0.6-2.5-1.4-3.5C63.4,14.9,62.2,14.3,60.8,14.3z" fill="#ff3737"/>
	</g>
</g>
<path d="M34.1,56.3c0,2.8,2.1,4.7,5,4.7s5-2,5-4.7c0-2.8-2.1-4.7-5-4.7S34.1,53.6,34.1,56.3z" fill="#ff3737"/>
<path d="M37,47.6h4c0.7,0,1.4-0.6,1.4-1.3c0.4-6.2,8.8-7.5,8.8-14.9c0-6.6-4.7-10-11.3-10c-4.3,0-7.8,1.7-10.6,4.5
	c-0.3,0.3-0.4,0.6-0.4,1c0,0.4,0.2,0.7,0.5,1l2.2,2.1c0.5,0.5,1.4,0.5,1.9,0c1.7-1.6,3.5-2.4,5.6-2.4c3,0,4.7,1.7,4.7,4.5
	c0,4.9-8.2,6.9-8.2,14.1c0,0.4,0.1,0.7,0.4,1C36.3,47.5,36.6,47.6,37,47.6z" fill="#ff3737"/>
</svg>
